<svg version="1.1" id="Layer_1" xmlns="http://www.w3.org/2000/svg" xmlns:xlink="http://www.w3.org/1999/xlink" x="0px" y="0px"
	 width="100%" viewBox="0 0 350 375" enable-background="new 0 0 350 375" xml:space="preserve">
<path fill="#FF5A5F" opacity="1.000000" stroke="none" 
	d="
M1.000000,314.000000 
	C1.000000,302.312439 1.000000,290.624878 1.293575,278.810791 
	C2.026968,278.205536 2.667304,277.801208 2.876789,277.236938 
	C6.535082,267.382568 9.529819,257.230499 13.872477,247.691116 
	C26.744585,219.415390 39.715214,191.168594 53.437702,163.299667 
	C73.750748,122.046005 94.556534,81.030724 115.612717,40.150978 
	C119.592476,32.424427 124.966728,25.067606 131.044632,18.858881 
	C138.572876,11.168584 147.936508,5.631148 158.658783,2.922953 
	C159.231232,2.778363 159.558563,1.663291 160.000000,1.000000 
	C169.687561,1.000000 179.375122,1.000000 189.190872,1.291590 
	C189.654724,1.952249 189.931915,2.556467 190.334442,2.656573 
	C208.069000,7.066932 220.750458,18.198662 229.959549,33.377724 
	C236.534653,44.215294 242.537598,55.433620 248.232956,66.764969 
	C265.294128,100.709473 282.304932,134.683151 298.901825,168.856003 
	C312.835052,197.544327 326.311005,226.458328 339.684998,255.413010 
	C345.597717,268.213989 350.365692,281.466064 348.977448,296.003326 
	C348.449463,301.532166 348.012421,307.105286 346.934296,312.539246 
	C343.734619,328.666718 336.066620,342.655243 324.300446,353.937897 
	C313.829803,363.978241 301.331818,371.015228 286.909607,374.149780 
	C286.492096,374.240509 286.298187,375.360138 286.000000,376.000000 
	C274.979095,376.000000 263.958221,376.000000 252.810425,375.693695 
	C250.886841,374.816223 249.109161,374.174530 247.290588,373.684601 
	C225.538391,367.824249 207.383163,355.840942 191.159531,340.623230 
	C185.459503,335.276611 179.962021,329.714050 174.998917,324.862854 
	C166.298767,332.770111 157.963882,340.927979 149.016113,348.346619 
	C134.124680,360.693115 117.832062,370.560547 98.378357,374.103210 
	C97.822205,374.204468 97.455208,375.344391 97.000008,376.000000 
	C86.312439,376.000000 75.624878,376.000000 64.809433,375.701599 
	C63.869648,374.938202 63.111767,374.264404 62.238026,374.038269 
	C31.290209,366.028381 11.724438,346.462280 2.937342,315.856689 
	C2.724002,315.113617 1.664725,314.613464 1.000000,314.000000 
M230.073761,168.445496 
	C239.747635,183.785416 240.954712,200.728104 237.765213,217.801941 
	C233.024368,243.180328 221.221893,265.605164 206.136719,286.367889 
	C201.363480,292.937622 196.571732,299.493927 191.795563,306.046631 
	C206.513596,321.677765 221.313858,336.605347 240.991348,345.536957 
	C252.264557,350.653809 264.036041,353.405273 276.281738,351.707520 
	C290.162323,349.783081 301.657166,342.972717 311.108002,332.478821 
	C320.957611,321.542145 324.870056,308.395538 324.768951,294.274689 
	C324.696960,284.222931 321.484863,274.532959 317.113922,265.273895 
	C306.569916,242.938232 296.525269,220.366562 285.952454,198.044861 
	C275.282532,175.518051 264.381897,153.096649 253.282593,130.778122 
	C241.738556,107.565300 230.105026,84.387932 217.949234,61.493111 
	C213.480164,53.075855 208.220963,44.783657 201.901855,37.701748 
	C186.727844,20.696041 156.865463,23.330288 143.985016,43.545506 
	C137.441910,53.814571 131.581924,64.560593 126.009117,75.397491 
	C114.466660,97.843002 103.277924,120.471146 92.031158,143.067703 
	C85.059868,157.074127 78.134941,171.105927 71.391350,185.222900 
	C59.048561,211.061188 46.779221,236.935257 34.632263,262.866089 
	C28.589413,275.766144 23.914331,288.938599 25.900921,303.713806 
	C27.405905,314.907043 31.441744,324.972961 38.872932,333.183594 
	C55.827587,351.916626 77.042900,356.539642 100.631447,348.956329 
	C124.506294,341.281006 141.981110,324.532806 158.353531,306.314972 
	C144.307556,288.649567 131.829224,270.596558 122.772324,250.379364 
	C115.644623,234.468628 110.434349,218.216995 110.888794,200.385239 
	C111.385544,180.893250 118.381073,164.872986 133.768616,152.745178 
	C150.913345,139.232452 170.361328,136.176392 191.244110,140.695526 
	C207.833130,144.285492 220.573837,153.649857 230.073761,168.445496 
M136.986343,212.532349 
	C137.622818,215.538651 138.130981,218.578934 138.916504,221.545776 
	C144.212662,241.549149 155.303329,258.563843 166.874313,275.303467 
	C169.306015,278.821320 172.180588,282.033112 175.080933,285.674530 
	C177.431992,282.436249 179.223480,279.931732 181.052612,277.455048 
	C196.337494,256.758820 209.705856,235.005005 213.736679,209.093033 
	C215.737564,196.230377 213.057495,183.667038 203.421722,174.084244 
	C190.967911,161.698898 175.898849,160.072403 159.810242,165.656372 
	C140.245880,172.446701 132.892120,193.279037 136.986343,212.532349 
z"/>
<path fill="#000000" opacity="1.000000" stroke="none" 
	d="
M286.468658,376.000000 
	C286.298187,375.360138 286.492096,374.240509 286.909607,374.149780 
	C301.331818,371.015228 313.829803,363.978241 324.300446,353.937897 
	C336.066620,342.655243 343.734619,328.666718 346.934296,312.539246 
	C348.012421,307.105286 348.449463,301.532166 348.977448,296.003326 
	C350.365692,281.466064 345.597717,268.213989 339.684998,255.413010 
	C326.311005,226.458328 312.835052,197.544327 298.901825,168.856003 
	C282.304932,134.683151 265.294128,100.709473 248.232956,66.764969 
	C242.537598,55.433620 236.534653,44.215294 229.959549,33.377724 
	C220.750458,18.198662 208.069000,7.066932 190.334442,2.656573 
	C189.931915,2.556467 189.654724,1.952249 189.659531,1.291590 
	C243.627563,1.000000 297.255127,1.000000 350.941345,1.000000 
	C350.941345,126.000000 350.941345,251.000000 350.941345,376.000000 
	C329.573029,376.000000 308.255157,376.000000 286.468658,376.000000 
z"/>
<path fill="#000000" opacity="1.000000" stroke="none" 
	d="
M159.531342,1.000000 
	C159.558563,1.663291 159.231232,2.778363 158.658783,2.922953 
	C147.936508,5.631148 138.572876,11.168584 131.044632,18.858881 
	C124.966728,25.067606 119.592476,32.424427 115.612717,40.150978 
	C94.556534,81.030724 73.750748,122.046005 53.437702,163.299667 
	C39.715214,191.168594 26.744585,219.415390 13.872477,247.691116 
	C9.529819,257.230499 6.535082,267.382568 2.876789,277.236938 
	C2.667304,277.801208 2.026968,278.205536 1.293575,278.342163 
	C1.000000,185.759369 1.000000,93.518745 1.000000,1.000000 
	C53.687233,1.000000 106.374962,1.000000 159.531342,1.000000 
z"/>
<path fill="#000000" opacity="1.000000" stroke="none" 
	d="
M97.468666,376.000000 
	C97.455208,375.344391 97.822205,374.204468 98.378357,374.103210 
	C117.832062,370.560547 134.124680,360.693115 149.016113,348.346619 
	C157.963882,340.927979 166.298767,332.770111 174.998917,324.862854 
	C179.962021,329.714050 185.459503,335.276611 191.159531,340.623230 
	C207.383163,355.840942 225.538391,367.824249 247.290588,373.684601 
	C249.109161,374.174530 250.886841,374.816223 252.341766,375.693695 
	C200.645767,376.000000 149.291550,376.000000 97.468666,376.000000 
z"/>
<path fill="#000000" opacity="1.000000" stroke="none" 
	d="
M1.000000,314.468658 
	C1.664725,314.613464 2.724002,315.113617 2.937342,315.856689 
	C11.724438,346.462280 31.290209,366.028381 62.238026,374.038269 
	C63.111767,374.264404 63.869648,374.938202 64.340775,375.701599 
	C43.073761,376.000000 22.147522,376.000000 1.000000,376.000000 
	C1.000000,355.646301 1.000000,335.291809 1.000000,314.468658 
z"/>
<path fill="#000000" opacity="1.000000" stroke="none" 
	d="
M230.010208,168.077637 
	C220.573837,153.649857 207.833130,144.285492 191.244110,140.695526 
	C170.361328,136.176392 150.913345,139.232452 133.768616,152.745178 
	C118.381073,164.872986 111.385544,180.893250 110.888794,200.385239 
	C110.434349,218.216995 115.644623,234.468628 122.772324,250.379364 
	C131.829224,270.596558 144.307556,288.649567 158.353531,306.314972 
	C141.981110,324.532806 124.506294,341.281006 100.631447,348.956329 
	C77.042900,356.539642 55.827587,351.916626 38.872932,333.183594 
	C31.441744,324.972961 27.405905,314.907043 25.900921,303.713806 
	C23.914331,288.938599 28.589413,275.766144 34.632263,262.866089 
	C46.779221,236.935257 59.048561,211.061188 71.391350,185.222900 
	C78.134941,171.105927 85.059868,157.074127 92.031158,143.067703 
	C103.277924,120.471146 114.466660,97.843002 126.009117,75.397491 
	C131.581924,64.560593 137.441910,53.814571 143.985016,43.545506 
	C156.865463,23.330288 186.727844,20.696041 201.901855,37.701748 
	C208.220963,44.783657 213.480164,53.075855 217.949234,61.493111 
	C230.105026,84.387932 241.738556,107.565300 253.282593,130.778122 
	C264.381897,153.096649 275.282532,175.518051 285.952454,198.044861 
	C296.525269,220.366562 306.569916,242.938232 317.113922,265.273895 
	C321.484863,274.532959 324.696960,284.222931 324.768951,294.274689 
	C324.870056,308.395538 320.957611,321.542145 311.108002,332.478821 
	C301.657166,342.972717 290.162323,349.783081 276.281738,351.707520 
	C264.036041,353.405273 252.264557,350.653809 240.991348,345.536957 
	C221.313858,336.605347 206.513596,321.677765 191.795563,306.046631 
	C196.571732,299.493927 201.363480,292.937622 206.136719,286.367889 
	C221.221893,265.605164 233.024368,243.180328 237.765213,217.801941 
	C240.954712,200.728104 239.747635,183.785416 230.010208,168.077637 
z"/>
<path fill="#000000" opacity="1.000000" stroke="none" 
	d="
M136.946060,212.084259 
	C132.892120,193.279037 140.245880,172.446701 159.810242,165.656372 
	C175.898849,160.072403 190.967911,161.698898 203.421722,174.084244 
	C213.057495,183.667038 215.737564,196.230377 213.736679,209.093033 
	C209.705856,235.005005 196.337494,256.758820 181.052612,277.455048 
	C179.223480,279.931732 177.431992,282.436249 175.080933,285.674530 
	C172.180588,282.033112 169.306015,278.821320 166.874313,275.303467 
	C155.303329,258.563843 144.212662,241.549149 138.916504,221.545776 
	C138.130981,218.578934 137.622818,215.538651 136.946060,212.084259 
z"/>
</svg>